<svg width="64" height="63" viewBox="0 0 64 63" fill="none" xmlns="http://www.w3.org/2000/svg">
<path d="M23.9999 57.0984H39.9999C53.3332 57.0984 58.6666 51.9319 58.6666 39.0157V23.5163C58.6666 10.6002 53.3332 5.43372 39.9999 5.43372H23.9999C10.6666 5.43372 5.33325 10.6002 5.33325 23.5163V39.0157C5.33325 51.9319 10.6666 57.0984 23.9999 57.0984Z" stroke="white" stroke-width="3" stroke-linecap="round" stroke-linejoin="round"/>
<path d="M41.3333 48.0568C44.2667 48.0568 46.6667 45.7319 46.6667 42.8903V19.6412C46.6667 16.7996 44.2667 14.4747 41.3333 14.4747C38.4 14.4747 36 16.7996 36 19.6412V42.8903C36 45.7319 38.3733 48.0568 41.3333 48.0568Z" stroke="white" stroke-width="3" stroke-linecap="round" stroke-linejoin="round"/>
<path d="M22.6666 48.057C25.5999 48.057 27.9999 45.7321 27.9999 42.8905V33.8492C27.9999 31.0076 25.5999 28.6827 22.6666 28.6827C19.7333 28.6827 17.3333 31.0076 17.3333 33.8492V42.8905C17.3333 45.7321 19.7066 48.057 22.6666 48.057Z" stroke="white" stroke-width="3" stroke-linecap="round" stroke-linejoin="round"/>
</svg>
