<svg width="152" height="82" viewBox="0 0 152 82" fill="none" xmlns="http://www.w3.org/2000/svg">
<path d="M1 79.025L3.22598 70.7557C1.43078 67.5343 0.860431 63.7753 1.61958 60.1684C2.37874 56.5615 4.41647 53.3486 7.35885 51.1193C10.3012 48.89 13.9509 47.7939 17.6381 48.032C21.3254 48.2702 24.8028 49.8266 27.4324 52.4158C30.062 55.005 31.6673 58.4532 31.9538 62.1276C32.2402 65.8021 31.1886 69.4564 28.9919 72.4199C26.7952 75.3834 23.6007 77.4573 19.9947 78.2612C16.3887 79.065 12.6131 78.5448 9.36055 76.796L1 79.025ZM9.76368 73.7015L10.2807 74.0075C12.6366 75.4003 15.3882 75.9767 18.1068 75.6468C20.8253 75.3169 23.3581 74.0993 25.3104 72.1836C27.2628 70.268 28.525 67.762 28.9004 65.0562C29.2757 62.3503 28.7432 59.5966 27.3857 57.2242C26.0283 54.8517 23.9221 52.9938 21.3955 51.94C18.8689 50.8861 16.0638 50.6956 13.4173 51.3979C10.7708 52.1003 8.43153 53.6562 6.76409 55.8231C5.09665 57.9901 4.19468 60.6463 4.19874 63.3779C4.19653 65.6429 4.82452 67.8641 6.01283 69.7941L6.33708 70.3273L5.09264 74.9428L9.76368 73.7015Z" fill="#3F4264"/>
<path fill-rule="evenodd" clip-rule="evenodd" d="M22.313 65.5013C22.0099 65.2574 21.655 65.0858 21.2753 64.9995C20.8957 64.9131 20.5012 64.9143 20.1221 65.003C19.5525 65.2391 19.1844 66.1307 18.8163 66.5765C18.7387 66.6834 18.6247 66.7583 18.4956 66.7873C18.3665 66.8163 18.2313 66.7973 18.1152 66.7338C16.0298 65.9191 14.2817 64.425 13.155 62.4943C13.0589 62.3738 13.0134 62.2208 13.0281 62.0675C13.0428 61.9143 13.1166 61.7727 13.2339 61.6726C13.6444 61.2672 13.9458 60.7651 14.1102 60.2128C14.1467 59.6035 14.0068 58.9966 13.7071 58.4645C13.4754 57.7185 13.0345 57.0542 12.4364 56.5501C12.1279 56.4117 11.7858 56.3653 11.4515 56.4165C11.1172 56.4677 10.8048 56.6143 10.5522 56.8386C10.1135 57.2161 9.76535 57.6869 9.5333 58.2164C9.30124 58.7459 9.19122 59.3205 9.21133 59.8981C9.21268 60.2224 9.25389 60.5453 9.33402 60.8596C9.53752 61.6148 9.85047 62.3363 10.263 63.0013C10.5606 63.5106 10.8853 64.0038 11.2357 64.4786C12.3746 66.038 13.8062 67.3621 15.4511 68.3772C16.2765 68.8931 17.1586 69.3125 18.0802 69.6272C19.0374 70.0601 20.0944 70.2262 21.1387 70.108C21.7337 70.0182 22.2975 69.7838 22.7804 69.4256C23.2633 69.0674 23.6505 68.5963 23.908 68.0538C24.0593 67.726 24.1052 67.3596 24.0395 67.0048C23.8817 66.2793 22.909 65.851 22.313 65.5013Z" fill="#3F4264"/>
<path d="M71.141 68.7307C70.9922 68.5823 70.8746 68.4059 70.7938 68.2119C70.7134 68.0175 70.6722 67.8095 70.6722 67.5995C70.6722 66.9523 71.0622 66.3691 71.6598 66.1211C72.2578 65.8735 72.9458 66.0107 73.4034 66.4683C73.861 66.9259 73.9982 67.6139 73.7506 68.2119C73.5026 68.8095 72.9194 69.1995 72.2722 69.1995C72.0621 69.1995 71.854 69.1582 71.6598 69.0779C71.4658 68.9971 71.2894 68.8795 71.141 68.7307Z" fill="#3F4264"/>
<path d="M80.0882 71.7491C80.0866 71.8635 80.0398 71.9727 79.9578 72.0527L79.9682 71.9995C79.687 72.2115 79.3882 72.3987 79.075 72.5595C78.4473 72.8812 77.7688 73.0927 77.0694 73.1847C76.7202 73.2303 76.3678 73.2459 76.0162 73.2315C75.6646 73.2459 75.3122 73.2303 74.963 73.1847C74.6138 73.1387 74.2694 73.0631 73.9334 72.9583C73.5974 72.8535 73.2706 72.7203 72.9574 72.5595C72.6442 72.3987 72.3454 72.2115 72.0642 71.9995C71.9962 71.9167 71.9614 71.8115 71.9666 71.7043C71.9718 71.5971 72.017 71.4959 72.0926 71.4199C72.1686 71.3443 72.2698 71.2991 72.377 71.2939C72.4842 71.2887 72.5894 71.3235 72.6722 71.3915C72.9106 71.5663 73.1634 71.7207 73.4278 71.8527C73.6922 71.9847 73.967 72.0943 74.2502 72.1799C74.533 72.2659 74.8226 72.3275 75.1158 72.3639C75.409 72.4007 75.705 72.4127 76.0002 72.3995C76.2958 72.4155 76.5922 72.4067 76.8866 72.3727C77.1806 72.3387 77.4714 72.2799 77.7554 72.1971C78.0397 72.114 78.3164 72.0071 78.5826 71.8775C78.8489 71.7479 79.1037 71.5961 79.3442 71.4235C79.4366 71.3543 79.547 71.3099 79.6618 71.3115C79.7762 71.3131 79.8854 71.3599 79.9654 71.4419C80.0454 71.5239 80.0898 71.6343 80.0882 71.7491Z" fill="#3F4264"/>
<path d="M80.2966 69.2047C80.0962 69.2879 79.881 69.3299 79.6642 69.3275L79.6802 69.2635C79.033 69.2635 78.4498 68.8735 78.2018 68.2759C77.9542 67.6779 78.0914 66.9899 78.549 66.5323C79.0066 66.0747 79.6946 65.9375 80.2926 66.1851C80.8902 66.4331 81.2802 67.0163 81.2802 67.6635C81.289 67.8803 81.2535 68.0965 81.1758 68.2991C81.0982 68.5019 80.9806 68.6867 80.8294 68.8423C80.6782 68.9979 80.497 69.1211 80.2966 69.2047Z" fill="#3F4264"/>
<path fill-rule="evenodd" clip-rule="evenodd" d="M92 66C92 74.8366 84.8366 82 76 82C67.1634 82 60 74.8366 60 66C60 57.1634 67.1634 50 76 50C84.8366 50 92 57.1634 92 66ZM86.5906 66.6491C86.6482 66.4375 86.6754 66.2187 86.6722 65.9995C86.6558 65.5491 86.5094 65.113 86.2506 64.7439C85.992 64.3749 85.632 64.0885 85.2142 63.9195C84.7965 63.7504 84.3388 63.7058 83.8962 63.7911C83.4537 63.8761 83.0453 64.0874 82.7202 64.3995C82.2682 64.0922 81.7945 63.8179 81.303 63.5787C80.319 63.0992 79.2708 62.7643 78.191 62.5843C77.6518 62.4943 77.1066 62.4431 76.5602 62.4315L77.6002 57.4395L81.0242 58.1595C81.1082 58.9411 81.7478 59.5459 82.533 59.5863C83.3178 59.6267 84.0162 59.0907 84.1798 58.3219C84.3438 57.5531 83.9246 56.7791 83.1914 56.4959C82.4582 56.2127 81.6278 56.5039 81.2322 57.1835L77.3122 56.3995C77.2482 56.3855 77.1818 56.3843 77.1174 56.3959C77.0526 56.4079 76.991 56.4323 76.9358 56.4679C76.881 56.5035 76.8334 56.5499 76.7966 56.6039C76.7594 56.6583 76.7334 56.7191 76.7202 56.7835L75.5362 62.3355C74.983 62.3439 74.431 62.3923 73.885 62.4807C73.339 62.5691 72.7998 62.6967 72.2722 62.8631C71.7446 63.0295 71.2298 63.2343 70.7318 63.4751C70.234 63.7163 69.7542 63.9931 69.2962 64.3035C69.0496 64.0714 68.7554 63.8958 68.4341 63.7887C68.1128 63.6817 67.772 63.6458 67.4354 63.6835C67.0989 63.7211 66.7746 63.8314 66.485 64.0068C66.1954 64.1823 65.9474 64.4186 65.7582 64.6995C65.5689 64.9804 65.443 65.2991 65.3891 65.6336C65.3352 65.968 65.3547 66.3102 65.4462 66.6363C65.5379 66.9623 65.6993 67.2645 65.9193 67.522C66.1393 67.7795 66.4125 67.9861 66.7202 68.1275C66.7158 68.1859 66.7122 68.2447 66.7102 68.3035C66.7054 68.4208 66.7054 68.5382 66.7102 68.6555C66.7122 68.7143 66.7158 68.7731 66.7202 68.8315C66.7202 72.4155 70.8962 75.3275 76.0482 75.3275C81.2002 75.3275 85.3762 72.4155 85.3762 68.8315C85.3806 68.7731 85.3842 68.7143 85.3862 68.6555C85.3911 68.5382 85.3911 68.4208 85.3862 68.3035C85.3842 68.2447 85.3806 68.1859 85.3762 68.1275C85.5726 68.0299 85.7542 67.9051 85.9158 67.7567C86.0774 67.6083 86.2174 67.4379 86.3314 67.2507C86.4458 67.0635 86.533 66.8607 86.5906 66.6491Z" fill="#3F4264"/>
<path d="M10.0012 14.9916C10.0012 12.2318 12.2392 9.99401 15.0006 9.99401C17.762 9.99401 20.0012 12.2318 20.0012 14.9916C20.0012 17.7514 17.762 19.9892 15.0006 19.9892C12.2392 19.9892 10.0012 17.7514 10.0012 14.9916ZM7.29797 14.9916C7.29797 19.2432 10.7464 22.6896 15.0006 22.6896C19.2548 22.6896 22.7032 19.2432 22.7032 14.9916C22.7032 10.74 19.2548 7.2936 15.0006 7.2936C10.7464 7.2936 7.29797 10.74 7.29797 14.9916ZM21.2081 6.98837C21.2079 7.34418 21.3134 7.69203 21.5111 7.98796C21.7087 8.28388 21.9898 8.51457 22.3186 8.65086C22.6475 8.78716 23.0094 8.82293 23.3586 8.75365C23.7078 8.68438 24.0287 8.51317 24.2805 8.26168C24.5323 8.01018 24.7039 7.6897 24.7735 7.34076C24.8431 6.99182 24.8076 6.63008 24.6715 6.30131C24.5354 5.97253 24.3048 5.69147 24.0088 5.49368C23.7129 5.29589 23.3649 5.19024 23.0089 5.19009H23.0082C22.5309 5.19032 22.0733 5.37983 21.7358 5.717C21.3983 6.05417 21.2085 6.51144 21.2081 6.98837ZM8.94036 27.1944C7.47786 27.1279 6.68295 26.8844 6.15469 26.6787C5.45434 26.4062 4.95464 26.0817 4.42926 25.5573C3.90388 25.033 3.57866 24.5341 3.30721 23.8341C3.10128 23.3064 2.85767 22.5118 2.79119 21.0501C2.71847 19.4699 2.70395 18.9952 2.70395 14.9917C2.70395 10.9882 2.71967 10.5149 2.79119 8.93332C2.85779 7.4717 3.1032 6.67858 3.30721 6.14932C3.57986 5.44939 3.9046 4.94999 4.42926 4.42492C4.95392 3.89986 5.45314 3.57484 6.15469 3.30355C6.68271 3.09775 7.47786 2.85428 8.94036 2.78784C10.5215 2.71516 10.9965 2.70065 15.0006 2.70065C19.0047 2.70065 19.4801 2.71636 21.0626 2.78784C22.5251 2.8544 23.3187 3.09966 23.8483 3.30355C24.5487 3.57484 25.0484 3.90058 25.5737 4.42492C26.0991 4.94927 26.4231 5.44939 26.6958 6.14932C26.9017 6.67702 27.1453 7.4717 27.2118 8.93332C27.2845 10.5149 27.2991 10.9882 27.2991 14.9917C27.2991 18.9952 27.2845 19.4686 27.2118 21.0501C27.1452 22.5118 26.9004 23.3062 26.6958 23.8341C26.4231 24.5341 26.0984 25.0335 25.5737 25.5573C25.0491 26.0812 24.5487 26.4062 23.8483 26.6787C23.3203 26.8845 22.5251 27.128 21.0626 27.1944C19.4815 27.2671 19.0065 27.2816 15.0006 27.2816C10.9947 27.2816 10.5211 27.2671 8.94036 27.1944ZM8.81615 0.0907892C7.21925 0.163468 6.12805 0.416527 5.17509 0.787119C4.18817 1.16983 3.35269 1.68326 2.51782 2.51631C1.68295 3.34936 1.17053 4.18566 0.787592 5.17198C0.416777 6.12497 0.163567 7.21492 0.0908436 8.81087C0.0169207 10.4093 0 10.9204 0 14.9916C0 19.0628 0.0169207 19.5739 0.0908436 21.1723C0.163567 22.7684 0.416777 23.8582 0.787592 24.8112C1.17053 25.797 1.68307 26.6342 2.51782 27.4669C3.35257 28.2996 4.18817 28.8123 5.17509 29.1961C6.12985 29.5667 7.21925 29.8197 8.81615 29.8924C10.4164 29.9651 10.9269 29.9832 15.0006 29.9832C19.0743 29.9832 19.5856 29.9663 21.185 29.8924C22.7821 29.8197 23.8726 29.5667 24.8261 29.1961C25.8124 28.8123 26.6485 28.3 27.4834 27.4669C28.3183 26.6339 28.8296 25.797 29.2136 24.8112C29.5844 23.8582 29.8388 22.7683 29.9104 21.1723C29.9831 19.5727 30 19.0628 30 14.9916C30 10.9204 29.9831 10.4093 29.9104 8.81087C29.8376 7.2148 29.5844 6.12437 29.2136 5.17198C28.8296 4.18626 28.3169 3.35068 27.4834 2.51631C26.6498 1.68194 25.8124 1.16983 24.8273 0.787119C23.8726 0.416527 22.782 0.162269 21.1862 0.0907892C19.5868 0.0181099 19.0755 0 15.0018 0C10.9281 0 10.4164 0.0169105 8.81615 0.0907892Z" fill="#3F4264"/>
<path fill-rule="evenodd" clip-rule="evenodd" d="M136.5 0C127.936 0 121 6.90253 121 15.4246C121 22.25 125.437 28.015 131.598 30.0588C132.373 30.1937 132.664 29.731 132.664 29.3261C132.664 28.9598 132.644 27.7451 132.644 26.4533C128.75 27.1666 127.742 25.5085 127.432 24.6409C127.258 24.1974 126.503 22.8285 125.844 22.4621C125.301 22.1729 124.526 21.4595 125.824 21.4402C127.045 21.421 127.917 22.5585 128.207 23.0213C129.602 25.3542 131.831 24.6987 132.722 24.2938C132.858 23.2912 133.264 22.6164 133.71 22.2308C130.261 21.8451 126.658 20.5148 126.658 14.6148C126.658 12.9374 127.258 11.5492 128.246 10.4695C128.091 10.0839 127.549 8.50283 128.401 6.38194C128.401 6.38194 129.699 5.97705 132.664 7.96297C133.904 7.61592 135.221 7.44239 136.539 7.44239C137.856 7.44239 139.174 7.61592 140.414 7.96297C143.378 5.95777 144.676 6.38194 144.676 6.38194C145.529 8.50283 144.986 10.0839 144.831 10.4695C145.819 11.5492 146.42 12.9181 146.42 14.6148C146.42 20.534 142.797 21.8451 139.348 22.2308C139.91 22.7128 140.394 23.6383 140.394 25.0843C140.394 27.1474 140.375 28.8055 140.375 29.3261C140.375 29.731 140.666 30.213 141.441 30.0588C147.563 28.015 152 22.2308 152 15.4246C152 6.90253 145.064 0 136.5 0Z" fill="#3F4264"/>
<path fill-rule="evenodd" clip-rule="evenodd" d="M92 16C92 24.8365 84.8365 32 76 32C67.1635 32 60 24.8365 60 16C60 7.16346 67.1635 0 76 0C84.8365 0 92 7.16346 92 16ZM77.5332 11.0905C74.7845 12.2778 66.8589 15.6496 66.8589 15.6496C64.9806 16.4094 66.0801 17.1218 66.0801 17.1218C66.0801 17.1218 67.6835 17.6917 69.0579 18.1191C70.4323 18.5465 71.1653 18.0716 71.1653 18.0716C71.1653 18.0716 74.3722 15.887 77.6249 13.56C79.9155 11.9453 79.3658 13.275 78.816 13.845C77.6249 15.0797 75.6549 17.0268 74.0057 18.594C73.2727 19.2589 73.6392 19.8288 73.9599 20.1137C74.8926 20.9318 77.0893 22.4197 78.0866 23.0952C78.3629 23.2823 78.5472 23.4071 78.587 23.438C78.816 23.6281 80.0988 24.4828 80.8776 24.2929C81.6564 24.1029 81.748 23.0106 81.748 23.0106C81.748 23.0106 82.3436 19.1164 82.8933 15.5546C82.9952 14.8553 83.097 14.1706 83.1919 13.5322C83.4387 11.8728 83.639 10.5258 83.6722 10.0457C83.8096 8.431 82.1603 9.09583 82.1603 9.09583C82.1603 9.09583 78.587 10.6156 77.5332 11.0905Z" fill="#3F4264"/>
</svg>
