<svg width="69" height="69" viewBox="0 0 69 69" fill="none" xmlns="http://www.w3.org/2000/svg">
<path d="M12.2188 5.56151e-06H56.7812C58.3863 -0.00154596 59.9758 0.321546 61.4589 0.950791C62.9421 1.58004 64.2897 2.50308 65.4246 3.6671C66.5595 4.83111 67.4595 6.21325 68.073 7.73441C68.6865 9.25557 69.0015 10.8859 69 12.5321V56.4679C69.0015 58.1141 68.6865 59.7444 68.073 61.2656C67.4595 62.7867 66.5595 64.1689 65.4246 65.3329C64.2897 66.4969 62.9421 67.42 61.4589 68.0492C59.9758 68.6785 58.3863 69.0015 56.7812 69H12.2188C10.6137 69.0015 9.02418 68.6785 7.54105 68.0492C6.05792 67.42 4.71034 66.4969 3.57542 65.3329C2.4405 64.1689 1.54054 62.7867 0.927021 61.2656C0.313507 59.7444 -0.00150732 58.1141 5.42247e-06 56.4679V12.5321C-0.00150732 10.8859 0.313507 9.25557 0.927021 7.73441C1.54054 6.21325 2.4405 4.83111 3.57542 3.6671C4.71034 2.50308 6.05792 1.58004 7.54105 0.950791C9.02418 0.321546 10.6137 -0.00154596 12.2188 5.56151e-06Z" fill="#5C5E7A"/>
<path d="M46.4677 53.9909C47.8576 56.2602 49.6658 57.9282 52.8639 57.9282C55.5505 57.9282 57.2667 56.5855 57.2667 54.7301C57.2667 52.5068 55.5034 51.7193 52.5463 50.4259L50.9253 49.7304C46.2465 47.7371 43.1382 45.2399 43.1382 39.9609C43.1382 35.098 46.8434 31.3961 52.6339 31.3961C56.7564 31.3961 59.7201 32.8309 61.8558 36.5875L56.8067 39.8294C55.6951 37.8361 54.4958 37.0508 52.6339 37.0508C50.7347 37.0508 49.5311 38.2556 49.5311 39.8294C49.5311 41.7746 50.7358 42.5621 53.5177 43.7668L55.1387 44.4612C60.6477 46.8236 63.7582 49.2321 63.7582 54.6469C63.7582 60.4845 59.1725 63.6826 53.0139 63.6826C46.9923 63.6826 43.102 60.8131 41.1985 57.0521L46.4677 53.9909ZM23.563 54.5527C24.5815 56.3599 25.5081 57.8877 27.7358 57.8877C29.8661 57.8877 31.2099 57.0542 31.2099 53.8134V31.7663H37.6937V53.9011C37.6937 60.6149 33.7575 63.6706 28.0118 63.6706C22.8204 63.6706 19.814 60.984 18.285 57.7481L23.563 54.5527Z" fill="white"/>
</svg>
