<svg width="20" height="19" viewBox="0 0 20 19" fill="none" xmlns="http://www.w3.org/2000/svg">
<path d="M2.08137 12.2442C1.63954 10.4391 1.63954 8.56091 2.08137 6.75581L0.624383 6.39918C0.125206 8.43858 0.125206 10.5614 0.624383 12.6008L2.08137 12.2442ZM17.9186 6.75581C18.3605 8.56091 18.3605 10.4391 17.9186 12.2442L19.3756 12.6008C19.8748 10.5614 19.8748 8.43858 19.3756 6.39919L17.9186 6.75581ZM12.8851 17.0551C10.9876 17.4816 9.01244 17.4816 7.11493 17.0551L6.78594 18.5186C8.90008 18.9938 11.0999 18.9938 13.2141 18.5186L12.8851 17.0551ZM7.11492 1.94491C9.01244 1.51836 10.9876 1.51836 12.8851 1.94491L13.2141 0.481434C11.0999 0.00618845 8.90007 0.00618893 6.78594 0.481434L7.11492 1.94491ZM7.11493 17.0551C4.60163 16.4901 2.6619 14.6159 2.08137 12.2442L0.624383 12.6008C1.34685 15.5525 3.74439 17.8348 6.78594 18.5186L7.11493 17.0551ZM13.2141 18.5186C16.2556 17.8348 18.6532 15.5525 19.3756 12.6008L17.9186 12.2442C17.3381 14.6159 15.3984 16.4901 12.8851 17.0551L13.2141 18.5186ZM12.8851 1.94491C15.3984 2.50989 17.3381 4.38406 17.9186 6.75581L19.3756 6.39919C18.6532 3.44754 16.2556 1.16516 13.2141 0.481434L12.8851 1.94491ZM6.78594 0.481434C3.74439 1.16516 1.34685 3.44754 0.624383 6.39918L2.08137 6.75581C2.6619 4.38406 4.60163 2.50989 7.11492 1.94491L6.78594 0.481434Z" fill="white" fill-opacity="0.44"/>
<path d="M6.26017 10.1666C5.9465 10.4372 5.91154 10.9107 6.18208 11.2244C6.45261 11.5381 6.92619 11.573 7.23985 11.3025L6.26017 10.1666ZM14.5218 9.80711C14.8354 9.53658 14.8704 9.06299 14.5999 8.74933C14.3293 8.43566 13.8557 8.4007 13.5421 8.67124L14.5218 9.80711ZM7.23985 11.3025L8.94637 9.83064L7.96668 8.69476L6.26017 10.1666L7.23985 11.3025ZM9.40231 9.87901L10.1483 10.9513L11.3796 10.0947L10.6337 9.02242L9.40231 9.87901ZM12.8153 11.279L14.5218 9.80711L13.5421 8.67124L11.8356 10.1431L12.8153 11.279ZM10.1483 10.9513C10.2905 11.1557 10.4416 11.3761 10.5936 11.5394C10.762 11.7204 11.0113 11.9214 11.3759 11.9653L11.5552 10.4761C11.6092 10.4826 11.6565 10.5015 11.6888 10.5211C11.7146 10.5368 11.7164 10.5441 11.6917 10.5176C11.6668 10.4908 11.6305 10.4466 11.5754 10.3718C11.5206 10.2973 11.4589 10.2087 11.3796 10.0947L10.1483 10.9513ZM11.8356 10.1431C11.7294 10.2347 11.6464 10.3062 11.5739 10.3655C11.5009 10.4252 11.4535 10.4601 11.4214 10.4809C11.3894 10.5015 11.3912 10.4958 11.418 10.4874C11.452 10.4768 11.5013 10.4696 11.5552 10.4761L11.3759 11.9653C11.7386 12.009 12.0283 11.8744 12.2346 11.7412C12.4224 11.6201 12.6242 11.4438 12.8153 11.279L11.8356 10.1431ZM8.94637 9.83064C9.05253 9.73907 9.1355 9.66758 9.20806 9.60821C9.28102 9.54852 9.3284 9.51363 9.36058 9.49287C9.3925 9.47227 9.39075 9.47797 9.36391 9.48632C9.32993 9.4969 9.28066 9.50413 9.22674 9.49764L9.40606 8.00839C9.0433 7.96471 8.75368 8.09931 8.54729 8.23248C8.35957 8.35361 8.15777 8.52994 7.96668 8.69476L8.94637 9.83064ZM10.6337 9.02242C10.4915 8.818 10.3404 8.59766 10.1884 8.4343C10.02 8.25332 9.77061 8.05229 9.40606 8.00839L9.22674 9.49764C9.17269 9.49113 9.12543 9.47221 9.09311 9.45261C9.0673 9.43697 9.06556 9.4296 9.09023 9.45611C9.11517 9.48291 9.15145 9.52712 9.20652 9.60196C9.26129 9.67639 9.32303 9.76505 9.40231 9.87901L10.6337 9.02242Z" fill="white" fill-opacity="0.44"/>
</svg>
