<svg width="79" height="84" viewBox="0 0 79 84" fill="none" xmlns="http://www.w3.org/2000/svg">
<path fill-rule="evenodd" clip-rule="evenodd" d="M5.72819 37.368C4.01666 38.893 3.29764 40.3639 3.29764 41.7126C3.29764 43.0613 4.01666 44.5322 5.72819 46.0572C7.43955 47.5821 10.0085 49.03 13.3233 50.2793C19.9416 52.7735 29.196 54.3504 39.5 54.3504C49.804 54.3504 59.0584 52.7735 65.6767 50.2793C68.9915 49.03 71.5604 47.5821 73.2718 46.0572C74.9833 44.5322 75.7024 43.0613 75.7024 41.7126C75.7024 40.3639 74.9833 38.893 73.2718 37.368C71.5604 35.8431 68.9915 34.3952 65.6767 33.1459C59.0584 30.6517 49.804 29.0748 39.5 29.0748C29.196 29.0748 19.9416 30.6517 13.3233 33.1459C10.0085 34.3952 7.43955 35.8431 5.72819 37.368ZM12.147 30.1051C19.2282 27.4363 28.8994 25.8198 39.5 25.8198C50.1006 25.8198 59.7718 27.4363 66.853 30.1051C70.3879 31.4373 73.3621 33.0634 75.4815 34.9518C77.6007 36.8401 79 39.122 79 41.7126C79 44.3032 77.6007 46.5851 75.4815 48.4734C73.3621 50.3618 70.3879 51.9879 66.853 53.3201C59.7718 55.9889 50.1006 57.6054 39.5 57.6054C28.8994 57.6054 19.2282 55.9889 12.147 53.3201C8.61211 51.9879 5.6379 50.3618 3.51851 48.4734C1.3993 46.5851 0 44.3032 0 41.7126C0 39.122 1.3993 36.8401 3.51851 34.9518C5.6379 33.0634 8.61211 31.4373 12.147 30.1051Z" fill="#5C5E7A"/>
<path fill-rule="evenodd" clip-rule="evenodd" d="M26.4258 10.6706C24.232 9.97012 22.582 10.0909 21.3987 10.7653C20.2154 11.4396 19.2843 12.7897 18.8021 15.0153C18.3198 17.2406 18.334 20.1606 18.8953 23.6187C20.016 30.5233 23.2597 39.2226 28.4117 48.0307C33.5638 56.8388 39.5745 63.9612 45.072 68.3715C47.8255 70.5804 50.3803 72.0525 52.5739 72.753C54.7677 73.4535 56.4177 73.3327 57.601 72.6583C58.7843 71.984 59.7154 70.6339 60.1976 68.4083C60.6799 66.183 60.6657 63.2631 60.1044 59.8049C58.9837 52.9003 55.74 44.201 50.588 35.3929C45.4359 26.5848 39.4252 19.4624 33.9277 15.0521C31.1742 12.8432 28.6194 11.3711 26.4258 10.6706ZM36.0075 12.5262C41.8896 17.2449 48.1435 24.7038 53.4438 33.7654C58.7441 42.827 62.1614 51.9024 63.3605 59.2899C63.9591 62.9778 64.0195 66.3332 63.4223 69.0891C62.8252 71.8448 61.5228 74.1819 59.2499 75.4772C56.9769 76.7725 54.2752 76.7173 51.5589 75.8499C48.8423 74.9824 45.9285 73.2531 42.9922 70.8974C37.1101 66.1787 30.8562 58.7198 25.5559 49.6582C20.2556 40.5966 16.8383 31.5212 15.6392 24.1337C15.0406 20.4458 14.9802 17.0904 15.5774 14.3345C16.1745 11.5788 17.4769 9.24167 19.7498 7.94638C22.0228 6.65109 24.7245 6.70631 27.4408 7.5737C30.1574 8.44117 33.0712 10.1706 36.0075 12.5262Z" fill="#5C5E7A"/>
<path fill-rule="evenodd" clip-rule="evenodd" d="M60.1976 15.0155C59.7153 12.7899 58.7843 11.4398 57.601 10.7655C56.4177 10.0911 54.7677 9.9703 52.5739 10.6708C50.3803 11.3713 47.8255 12.8434 45.072 15.0523C39.5745 19.4626 33.5638 26.585 28.4117 35.3931C23.2597 44.2012 20.016 52.9005 18.8953 59.805C18.334 63.2632 18.3198 66.1832 18.8021 68.4085C19.2843 70.6341 20.2154 71.9842 21.3986 72.6585C22.5819 73.3329 24.232 73.4537 26.4258 72.7531C28.6194 72.0527 31.1742 70.5806 33.9277 68.3717C39.4252 63.9614 45.4359 56.839 50.5879 48.0309C55.74 39.2228 58.9837 30.5235 60.1044 23.6189C60.6657 20.1607 60.6798 17.2408 60.1976 15.0155ZM63.3605 24.1339C62.1614 31.5214 58.7441 40.5968 53.4438 49.6584C48.1435 58.72 41.8896 66.1788 36.0075 70.8976C33.0712 73.2532 30.1574 74.9826 27.4408 75.8501C24.7245 76.7175 22.0227 76.7727 19.7498 75.4774C17.4769 74.1821 16.1745 71.845 15.5774 69.0893C14.9802 66.3334 15.0406 62.978 15.6392 59.2901C16.8383 51.9026 20.2556 42.8272 25.5559 33.7656C30.8562 24.704 37.1101 17.2451 42.9922 12.5264C45.9285 10.1707 48.8423 8.44135 51.5588 7.57388C54.2752 6.70649 56.9769 6.65128 59.2498 7.94656C61.5228 9.24185 62.8252 11.5789 63.4223 14.3346C64.0195 17.0906 63.9591 20.446 63.3605 24.1339Z" fill="#5C5E7A"/>
</svg>
