<svg width="51" height="58" viewBox="0 0 51 58" fill="none" xmlns="http://www.w3.org/2000/svg">
<path d="M51 0L46.3538 52.0496L25.4688 57.8395L4.6414 52.0575L0 0H51Z" fill="#5C5E7A"/>
<path d="M25.5 53.4141L42.3762 48.7355L46.3464 4.25671H25.5V53.4141Z" fill="#5C5E7A"/>
<path d="M16.4679 17.0258H25.5V10.6411H9.49033L9.64306 12.354L11.2124 29.9484H25.5V23.5637H17.0515L16.4679 17.0258ZM17.9069 33.1408H11.4977L12.3921 43.1657L25.4706 46.7961L25.5 46.7881V40.1454L25.472 40.1528L18.3615 38.2328L17.9069 33.1408Z" fill="#EBEBEB"/>
<path d="M25.478 29.9484H33.3401L32.5988 38.2288L25.4778 40.1508V46.7931L38.5668 43.1657L38.6628 42.0869L40.1633 25.2782L40.319 23.5637H25.478V29.9484ZM25.478 17.0102V17.0258H40.9L41.0279 15.5908L41.319 12.354L41.4715 10.6411H25.478V17.0104V17.0102Z" fill="white"/>
</svg>
