<svg width="17" height="17" viewBox="0 0 17 17" fill="none" xmlns="http://www.w3.org/2000/svg">
<path d="M5.29834 12.9979L7.49417 14.6979C7.77751 14.9813 8.41501 15.1229 8.84001 15.1229H11.5317C12.3817 15.1229 13.3025 14.4854 13.515 13.6354L15.215 8.4646C15.5692 7.47293 14.9317 6.62293 13.8692 6.62293H11.0358C10.6108 6.62293 10.2567 6.26877 10.3275 5.77293L10.6817 3.50627C10.8233 2.86877 10.3983 2.16043 9.76084 1.94793C9.19417 1.73543 8.48584 2.01877 8.20251 2.44377L5.29834 6.7646" stroke="#11E27E" stroke-miterlimit="10"/>
<path d="M1.68584 12.9979V6.05622C1.68584 5.06455 2.11084 4.71039 3.1025 4.71039H3.81084C4.8025 4.71039 5.2275 5.06455 5.2275 6.05622V12.9979C5.2275 13.9896 4.8025 14.3437 3.81084 14.3437H3.1025C2.11084 14.3437 1.68584 13.9896 1.68584 12.9979Z" stroke="#11E27E" stroke-linecap="round" stroke-linejoin="round"/>
</svg>
