<svg width="68" height="68" viewBox="0 0 68 68" fill="none" xmlns="http://www.w3.org/2000/svg">
<path d="M24.0833 53.8325H22.6667C11.3334 53.8325 5.66669 50.9992 5.66669 36.8325V22.6658C5.66669 11.3325 11.3334 5.66583 22.6667 5.66583H45.3333C56.6667 5.66583 62.3333 11.3325 62.3333 22.6658V36.8325C62.3333 48.1658 56.6667 53.8325 45.3333 53.8325H43.9167C43.0383 53.8325 42.1883 54.2575 41.65 54.9658L37.4 60.6325C35.53 63.1258 32.47 63.1258 30.6 60.6325L26.35 54.9658C25.8967 54.3425 24.8483 53.8325 24.0833 53.8325Z" stroke="white" stroke-width="4" stroke-miterlimit="10" stroke-linecap="round" stroke-linejoin="round"/>
<path d="M19.8333 22.6658H48.1666" stroke="white" stroke-width="4" stroke-linecap="round" stroke-linejoin="round"/>
<path d="M19.8333 36.8341H36.8333" stroke="white" stroke-width="4" stroke-linecap="round" stroke-linejoin="round"/>
</svg>
