<svg width="19" height="19" viewBox="0 0 19 19" fill="none" xmlns="http://www.w3.org/2000/svg">
<path d="M9.49999 12.2708C11.2496 12.2708 12.6667 10.8538 12.6667 9.10418V4.75001C12.6667 3.00043 11.2496 1.58334 9.49999 1.58334C7.75041 1.58334 6.33333 3.00043 6.33333 4.75001V9.10418C6.33333 10.8538 7.75041 12.2708 9.49999 12.2708Z" stroke="#11E27E" stroke-linecap="round" stroke-linejoin="round"/>
<path d="M3.44376 7.63959V8.98542C3.44376 12.3263 6.15917 15.0417 9.50001 15.0417C12.8408 15.0417 15.5563 12.3263 15.5563 8.98542V7.63959" stroke="#11E27E" stroke-linecap="round" stroke-linejoin="round"/>
<path d="M8.39958 5.09041C9.11208 4.82916 9.88792 4.82916 10.6004 5.09041" stroke="#11E27E" stroke-linecap="round" stroke-linejoin="round"/>
<path d="M8.86667 6.76876C9.28625 6.65793 9.72167 6.65793 10.1413 6.76876" stroke="#11E27E" stroke-linecap="round" stroke-linejoin="round"/>
<path d="M9.5 15.0417V17.4167" stroke="#11E27E" stroke-linecap="round" stroke-linejoin="round"/>
</svg>
