<svg width="19" height="19" viewBox="0 0 19 19" fill="none" xmlns="http://www.w3.org/2000/svg">
<path d="M9.62667 8.60546C9.5475 8.59754 9.4525 8.59754 9.36542 8.60546C7.48125 8.54212 5.985 6.99837 5.985 5.09837C5.985 3.15879 7.5525 1.58337 9.5 1.58337C11.4396 1.58337 13.015 3.15879 13.015 5.09837C13.0071 6.99837 11.5108 8.54212 9.62667 8.60546Z" stroke="#3F4264" stroke-width="1.5" stroke-linecap="round" stroke-linejoin="round"/>
<path d="M5.66834 11.5266C3.7525 12.8091 3.7525 14.8991 5.66834 16.1737C7.84542 17.6304 11.4158 17.6304 13.5929 16.1737C15.5088 14.8912 15.5088 12.8012 13.5929 11.5266C11.4238 10.0779 7.85334 10.0779 5.66834 11.5266Z" stroke="#3F4264" stroke-width="1.5" stroke-linecap="round" stroke-linejoin="round"/>
</svg>
