<svg width="76" height="74" viewBox="0 0 76 74" fill="none" xmlns="http://www.w3.org/2000/svg">
<path fill-rule="evenodd" clip-rule="evenodd" d="M33.4435 0.0740732C24.2382 1.60954 28.1238 16.918 30.2411 22.6101L31.3625 25.3797C31.536 25.7603 31.6662 25.8729 31.5188 26.2914C29.2028 32.8687 25.5474 42.4434 22.3598 48.2399C22.0495 48.8041 21.7823 49.365 21.4583 49.9049C20.8407 50.9335 21.1829 50.6213 20.0085 51.1007C14.1501 53.4923 4.4531 58.1416 1.13532 63.4843C-2.49304 69.3271 3.1785 74.5715 9.63371 73.0053C15.4814 71.5866 20.4853 65.2005 23.5815 61.0095C25.4282 58.5097 27.053 55.7617 28.6404 53.075C28.9331 52.5796 29.4984 52.5607 30.446 52.2362C35.2093 50.6049 41.9772 48.9392 46.9806 47.9918C48.1052 47.7789 47.7573 47.6859 48.7594 48.5166C52.0417 51.2377 56.2525 53.8252 60.4411 55.0741C63.1982 55.8962 66.3982 56.5461 69.5625 56.1757C72.638 55.8157 74.9263 54.4435 75.7342 51.9156C76.1807 50.5185 76.0426 48.789 75.4848 47.5535C72.2595 40.4101 57.1925 41.8026 50.6504 42.7587C48.9722 43.004 49.671 43.1636 48.1798 41.7005C47.1121 40.653 46.6669 40.0779 45.7274 39.0107C44.8614 38.0269 43.6145 36.4058 42.8572 35.3446C41.7527 33.7969 40.7542 32.3262 39.7414 30.6774C39.2736 29.9156 38.8689 29.4456 39.0392 28.9357C40.9151 23.3174 42.1803 18.0862 42.4924 11.6408C42.6858 7.64925 41.3088 2.73386 37.7525 0.824084C36.6231 0.217581 34.9076 -0.170103 33.4435 0.0740732ZM31.9048 46.9417C32.0399 46.9532 37.0101 45.5379 37.6906 45.366C39.5449 44.8974 41.9255 44.232 43.8319 43.9818C43.6362 43.5601 43.24 43.3183 42.9483 42.9377L37.7607 36.2289C37.4834 35.7967 37.2631 35.3705 36.9534 35.0307C36.9054 35.0945 36.9409 35.0229 36.8623 35.1767L36.3411 36.5675C36.1412 37.1096 35.9447 37.5868 35.7452 38.1027L33.2502 44.1097C33.0026 44.652 32.1302 46.6748 31.9048 46.9417ZM33.9279 21.4892C34.2554 20.8882 34.9258 17.9662 35.1339 17.0697C35.7115 14.5797 36.658 9.50094 36.4325 7.02832C36.2862 5.42375 35.7095 3.63099 33.933 3.80777C31.1365 4.086 31.2808 9.87939 31.5908 12.4902C31.7859 14.1327 32.1051 15.683 32.5121 17.2172C32.7026 17.9356 33.6233 21.1164 33.9279 21.4892ZM19.0022 55.767C18.3815 55.9342 17.1948 56.5765 16.5893 56.8605C14.3859 57.8941 11.667 59.3887 9.73092 60.667C8.27373 61.629 1.92359 65.9334 4.44348 68.5277C7.42747 71.5999 14.574 62.275 16.165 60.0236C16.8826 59.0083 18.4646 56.7916 19.0022 55.767ZM52.1591 46.4019C53.2255 47.1927 54.2394 47.9813 55.5386 48.7459C57.7212 50.0303 61.3308 51.6656 63.8874 52.0344C69.046 52.7787 70.1898 48.5898 67.8131 46.8922C65.0561 44.9229 52.8356 45.9086 52.1591 46.4019Z" fill="#5C5E7A"/>
</svg>
