<svg width="14" height="14" viewBox="0 0 14 14" fill="none" xmlns="http://www.w3.org/2000/svg">
<path d="M8.15333 1.34001L9.32667 3.68668C9.48667 4.01334 9.91333 4.32668 10.2733 4.38668L12.4 4.74001C13.76 4.96668 14.08 5.95334 13.1 6.92668L11.4467 8.58001C11.1667 8.86001 11.0133 9.40001 11.1 9.78668L11.5733 11.8333C11.9467 13.4533 11.0867 14.08 9.65333 13.2333L7.66 12.0533C7.3 11.84 6.70667 11.84 6.34 12.0533L4.34667 13.2333C2.92 14.08 2.05333 13.4467 2.42667 11.8333L2.9 9.78668C2.98667 9.40001 2.83333 8.86001 2.55333 8.58001L0.9 6.92668C-0.073333 5.95334 0.240001 4.96668 1.6 4.74001L3.72667 4.38668C4.08 4.32668 4.50667 4.01334 4.66667 3.68668L5.84 1.34001C6.48 0.0666764 7.52 0.0666764 8.15333 1.34001Z" fill="#FFC700"/>
</svg>
