<svg width="64" height="64" viewBox="0 0 64 64" fill="none" xmlns="http://www.w3.org/2000/svg">
<path d="M62.7933 29.1494L34.8486 1.20704C33.2408 -0.402348 30.6308 -0.402348 29.021 1.20704L23.2185 7.01025L30.5787 14.3707C32.2898 13.793 34.251 14.1803 35.6143 15.5439C36.9846 16.916 37.3692 18.8941 36.777 20.6109L43.8709 27.7051C45.5871 27.1137 47.5673 27.4958 48.9377 28.8687C50.8536 30.7841 50.8536 33.8879 48.9377 35.8039C47.0215 37.7204 43.9178 37.7204 42.0005 35.8039C40.5599 34.362 40.2036 32.2452 40.9332 30.4702L34.3174 23.8541L34.3168 41.2643C34.7839 41.4955 35.2247 41.8041 35.614 42.1917C37.5294 44.1069 37.5294 47.2102 35.614 49.1286C33.698 51.0438 30.593 51.0438 28.6791 49.1286C26.7634 47.2103 26.7634 44.1071 28.6791 42.1917C29.1525 41.7191 29.7003 41.3614 30.2848 41.1216V23.5497C29.7 23.3109 29.1529 22.9559 28.6787 22.4795C27.2277 21.0295 26.8782 18.8998 27.6224 17.1179L20.3667 9.86078L1.20737 29.0203C-0.402458 30.631 -0.402458 33.241 1.20737 34.8505L29.1504 62.793C30.7591 64.4024 33.3682 64.4024 34.9792 62.793L62.793 34.9825C64.4023 33.3723 64.4023 30.7615 62.793 29.1518" fill="#5C5E7A"/>
</svg>
